<svg width="206" height="41" viewBox="0 0 206 41" fill="none" xmlns="http://www.w3.org/2000/svg">
<path d="M19.5711 10.3226C19.7301 10.3148 19.8894 10.3109 20.0489 10.3109C20.2085 10.3109 20.3678 10.3148 20.5268 10.3226L21.0327 0.0241488C20.7054 0.00806872 20.3773 0 20.0489 0C19.7205 0 19.3925 0.00806872 19.0652 0.0241488L19.5711 10.3226Z" fill="#5C3EAE"/>
<path d="M17.6828 10.6027C17.992 10.5252 18.3048 10.463 18.6201 10.4162L17.1072 0.216919C16.4581 0.313208 15.8141 0.441309 15.1775 0.60076L17.6828 10.6027Z" fill="#583EAF"/>
<path d="M21.4778 10.4162C21.7931 10.463 22.106 10.5252 22.4152 10.6026L24.9205 0.600759C24.2839 0.44131 23.6399 0.313208 22.9908 0.216919L21.4778 10.4162Z" fill="#603EAE"/>
<path d="M16.3224 11.0523C16.4697 10.9912 16.6185 10.9339 16.7683 10.8802L13.2947 1.1721C12.9861 1.28251 12.68 1.40058 12.3765 1.52626C12.0731 1.65193 11.7732 1.78492 11.4769 1.92503L15.8854 11.246C16.0293 11.1779 16.175 11.1133 16.3224 11.0523Z" fill="#4E3AA5"/>
<path d="M23.3296 10.8802C23.4795 10.9339 23.6282 10.9912 23.7756 11.0523C23.9229 11.1133 24.0686 11.1779 24.2125 11.246L28.621 1.92504C28.3247 1.78492 28.0248 1.65194 27.7214 1.52626C27.418 1.40058 27.1118 1.28251 26.8033 1.1721L23.3296 10.8802Z" fill="#653EAD"/>
<path d="M14.248 12.2272C14.504 12.0373 14.7693 11.8601 15.0426 11.6963L9.74178 2.85231C9.1789 3.18968 8.63294 3.55448 8.10583 3.9454L14.248 12.2272Z" fill="#7157FA"/>
<path d="M25.0553 11.6962C25.3287 11.8601 25.5939 12.0373 25.8499 12.2272L31.9921 3.9454C31.465 3.55448 30.919 3.18968 30.3561 2.85231L25.0553 11.6962Z" fill="#7140AD"/>
<path d="M13.1631 13.1631C13.2759 13.0503 13.3913 12.9404 13.5093 12.8335L6.58488 5.19362C6.34207 5.41371 6.10442 5.63995 5.87221 5.87216C5.64 6.10438 5.41376 6.34202 5.19366 6.58484L12.8335 13.5092C12.9404 13.3913 13.0503 13.2758 13.1631 13.1631Z" fill="#6756FB"/>
<path d="M26.5887 12.8335C26.7066 12.9404 26.8221 13.0503 26.9348 13.1631C27.0476 13.2758 27.1575 13.3913 27.2644 13.5093L34.9043 6.58484C34.6842 6.34202 34.4579 6.10438 34.2257 5.87216C33.9935 5.63995 33.7559 5.41371 33.5131 5.19362L26.5887 12.8335Z" fill="#8241AB"/>
<path d="M11.6964 15.0426C11.8602 14.7692 12.0374 14.504 12.2273 14.248L3.9455 8.1058C3.55459 8.63291 3.18979 9.17887 2.85242 9.74175L11.6964 15.0426Z" fill="#5F55FC"/>
<path d="M27.8706 14.248C28.0605 14.504 28.2377 14.7692 28.4015 15.0426L37.2455 9.74175C36.9081 9.17887 36.5433 8.63291 36.1524 8.1058L27.8706 14.248Z" fill="#8A41AA"/>
<path d="M11.0521 16.3224C11.1132 16.175 11.1777 16.0293 11.2458 15.8855L1.92487 11.477C1.78475 11.7733 1.65177 12.0732 1.52609 12.3766C1.40041 12.68 1.28234 12.9862 1.17194 13.2947L10.8801 16.7684C10.9337 16.6185 10.9911 16.4698 11.0521 16.3224Z" fill="#5755FD"/>
<path d="M28.8521 15.8855C28.9201 16.0293 28.9847 16.175 29.0458 16.3224C29.1068 16.4698 29.1641 16.6185 29.2178 16.7684L38.9259 13.2947C38.8155 12.9862 38.6975 12.68 38.5718 12.3766C38.4461 12.0732 38.3131 11.7733 38.173 11.477L28.8521 15.8855Z" fill="#9242A9"/>
<path d="M10.4163 18.6202C10.463 18.3049 10.5253 17.9921 10.6027 17.6829L0.60082 15.1775C0.441371 15.8141 0.313269 16.4581 0.21698 17.1072L10.4163 18.6202Z" fill="#5354FD"/>
<path d="M29.4951 17.6829C29.5726 17.9921 29.6348 18.3049 29.6816 18.6202L39.8808 17.1072C39.7845 16.4581 39.6565 15.8141 39.497 15.1775L29.4951 17.6829Z" fill="#9843A8"/>
<path d="M10.3109 20.049C10.3109 19.8895 10.3148 19.7301 10.3226 19.5712L0.0241488 19.0653C0.00806872 19.3926 0 19.7206 0 20.049C-3.94229e-07 22.6819 0.518582 25.2889 1.52614 27.7214C2.53369 30.1538 4.01049 32.364 5.8722 34.2257C7.7339 36.0874 9.9441 37.5643 12.3765 38.5718C14.809 39.5793 17.4161 40.0979 20.049 40.0979C22.6818 40.0979 25.2889 39.5793 27.7214 38.5718C30.1538 37.5643 32.364 36.0874 34.2257 34.2257C36.0874 32.364 37.5642 30.1538 38.5718 27.7214C39.5793 25.2889 40.0979 22.6819 40.0979 20.049C40.0979 19.7206 40.0898 19.3926 40.0738 19.0653L29.7753 19.5712C29.7831 19.7302 29.787 19.8895 29.787 20.049C29.787 21.3278 29.5351 22.5941 29.0458 23.7756C28.5563 24.9571 27.8391 26.0306 26.9348 26.9348C26.0305 27.8391 24.957 28.5564 23.7756 29.0458C22.5941 29.5352 21.3278 29.787 20.049 29.787C18.7701 29.787 17.5038 29.5352 16.3223 29.0458C15.1409 28.5564 14.0674 27.8391 13.1631 26.9348C12.2588 26.0306 11.5416 24.9571 11.0521 23.7756C10.5628 22.5941 10.3109 21.3278 10.3109 20.049Z" fill="#5354FD"/>
<g opacity="0.3">
<path d="M20.0503 10.3105C19.8908 10.3105 19.7314 10.3145 19.5725 10.3223L19.3804 6.41137C19.8246 6.2198 20.2799 6.04925 20.7453 5.90106L20.5282 10.3223C20.3691 10.3145 20.2098 10.3105 20.0503 10.3105Z" fill="black"/>
<path d="M22.2059 5.51716L21.4792 10.4159C21.7945 10.4627 22.1073 10.5249 22.4165 10.6024L23.7499 5.27911C23.2267 5.33178 22.7116 5.41161 22.2059 5.51716Z" fill="black"/>
<path d="M25.3617 5.20425L23.3309 10.8798C23.4808 10.9334 23.6295 10.9908 23.7769 11.0518C23.9242 11.1129 24.07 11.1775 24.2138 11.2455L27.0221 5.30802C26.4771 5.24333 25.9231 5.20822 25.3617 5.20425Z" fill="black"/>
<path d="M28.7062 5.60736L25.0567 11.6961C25.3301 11.86 25.5953 12.0372 25.8513 12.2271L30.3848 6.11438C29.8396 5.91357 29.2793 5.74383 28.7062 5.60736Z" fill="black"/>
<path d="M32.0265 6.83493L26.59 12.8331C26.708 12.94 26.8234 13.0499 26.9362 13.1627C27.049 13.2755 27.1589 13.3909 27.2658 13.5089L33.5986 7.76908C33.0959 7.42677 32.5709 7.1145 32.0265 6.83493Z" fill="black"/>
<path d="M35.0684 8.91057L27.872 14.2478C28.0619 14.5038 28.2391 14.769 28.4029 15.0424L36.4035 10.247C35.9871 9.77388 35.5411 9.32741 35.0684 8.91057Z" fill="black"/>
<path d="M37.5725 11.7613L28.8535 15.8851C28.9215 16.029 28.9861 16.1747 29.0471 16.3221C29.1082 16.4695 29.1655 16.6182 29.2192 16.7681L38.5461 13.4308C38.2573 12.8517 37.9317 12.2942 37.5725 11.7613Z" fill="black"/>
<path d="M39.2987 15.2271L29.4965 17.6824C29.574 17.9916 29.6362 18.3044 29.683 18.6197L39.8099 17.1175C39.6805 16.4712 39.5091 15.8402 39.2987 15.2271Z" fill="black"/>
<path d="M40.0672 19.0653L29.7767 19.5709C29.7845 19.7298 29.7884 19.8892 29.7884 20.0487C29.7884 21.3275 29.5365 22.5938 29.0471 23.7753C28.5577 24.9568 27.8404 26.0303 26.9362 26.9346C26.0319 27.8388 24.9584 28.5561 23.7769 29.0455C22.5954 29.5349 21.3291 29.7868 20.0503 29.7868C18.7715 29.7868 17.5052 29.5349 16.3237 29.0455C15.1422 28.5561 14.0687 27.8388 13.1645 26.9346C12.2602 26.0303 11.5429 24.9568 11.0535 23.7753C10.8599 23.3079 10.7035 22.8273 10.5851 22.3378C11.6859 29.4495 17.8344 34.8935 25.2545 34.8935C33.453 34.8935 40.0992 28.2473 40.0992 20.0487C40.0992 19.7183 40.0885 19.3904 40.0672 19.0653Z" fill="black"/>
<path d="M10.5851 17.76C10.5914 17.7341 10.5977 17.7083 10.6042 17.6824L10.5976 17.6807C10.5933 17.7072 10.5892 17.7336 10.5851 17.76Z" fill="black"/>
<path d="M10.7816 16.7322L10.8815 16.7679C10.9351 16.6181 10.9925 16.4693 11.0535 16.322C11.1145 16.1746 11.1791 16.0289 11.2472 15.885L11.0316 15.7831C10.9382 16.0952 10.8547 16.4117 10.7816 16.7322Z" fill="black"/>
<path d="M11.3513 14.8346L11.6977 15.0423C11.8616 14.7689 12.0388 14.5037 12.2287 14.2477L11.7443 13.8884C11.6028 14.1983 11.4716 14.5138 11.3513 14.8346Z" fill="black"/>
<path d="M12.2153 12.9473L12.8349 13.5089C12.9418 13.391 13.0517 13.2756 13.1645 13.1628C13.2773 13.05 13.3927 12.9401 13.5107 12.8332L12.7692 12.0151C12.5736 12.3184 12.3888 12.6294 12.2153 12.9473Z" fill="black"/>
<path d="M13.4113 11.097L14.2494 12.2269C14.5054 12.0371 14.7705 11.8599 15.044 11.696L14.1472 10.1998C13.8905 10.489 13.645 10.7883 13.4113 11.097Z" fill="black"/>
<path d="M14.9819 9.33235L15.8867 11.2456C16.0307 11.1776 16.1763 11.113 16.3237 11.0519C16.4711 10.9909 16.6198 10.9336 16.7697 10.8799L15.92 8.50536C15.5957 8.76791 15.2827 9.04387 14.9819 9.33235Z" fill="black"/>
<path d="M16.9651 7.73208L17.6841 10.6025C17.9933 10.525 18.3062 10.4628 18.6215 10.4161L18.1189 7.02823C17.723 7.24565 17.3381 7.48062 16.9651 7.73208Z" fill="black"/>
</g>
<path d="M58.7648 16.3129H53.4197V20.0312H58.3317V22.7988H53.4197V28.6826H50.0078V13.5348H58.7648V16.3129ZM67.9972 20.8763C67.5958 20.658 67.1275 20.5488 66.5922 20.5488C65.8669 20.5488 65.3 20.8164 64.8915 21.3516C64.4831 21.8798 64.2789 22.6016 64.2789 23.5171V28.6826H60.9409V17.8657H64.2789V19.8728H64.3211C64.8493 18.408 65.8 17.6756 67.1732 17.6756C67.5253 17.6756 67.8 17.7178 67.9972 17.8024V20.8763ZM79.1943 24.2249H72.138C72.2507 25.7953 73.2401 26.5805 75.1063 26.5805C76.2965 26.5805 77.3422 26.2988 78.2436 25.7354V28.1439C77.2436 28.6791 75.9443 28.9467 74.3458 28.9467C72.5993 28.9467 71.2436 28.4643 70.2789 27.4995C69.3141 26.5277 68.8317 25.1756 68.8317 23.4432C68.8317 21.6474 69.3528 20.2249 70.3951 19.1756C71.4373 18.1263 72.719 17.6017 74.2401 17.6017C75.8176 17.6017 77.0359 18.07 77.895 19.0066C78.7612 19.9432 79.1943 21.2143 79.1943 22.82V24.2249ZM76.0993 22.1756C76.0993 20.6263 75.4725 19.8516 74.219 19.8516C73.6838 19.8516 73.219 20.0735 72.8246 20.5171C72.4373 20.9608 72.2014 21.5136 72.1169 22.1756H76.0993ZM90.8985 24.2249H83.8422C83.9549 25.7953 84.9443 26.5805 86.8105 26.5805C88.0007 26.5805 89.0464 26.2988 89.9478 25.7354V28.1439C88.9478 28.6791 87.6485 28.9467 86.05 28.9467C84.3035 28.9467 82.9479 28.4643 81.9831 27.4995C81.0183 26.5277 80.5359 25.1756 80.5359 23.4432C80.5359 21.6474 81.057 20.2249 82.0993 19.1756C83.1415 18.1263 84.4232 17.6017 85.9443 17.6017C87.5218 17.6017 88.7401 18.07 89.5992 19.0066C90.4654 19.9432 90.8985 21.2143 90.8985 22.82V24.2249ZM87.8035 22.1756C87.8035 20.6263 87.1767 19.8516 85.9232 19.8516C85.388 19.8516 84.9232 20.0735 84.5288 20.5171C84.1415 20.9608 83.9056 21.5136 83.8211 22.1756H87.8035ZM96.2225 28.6826H92.8844V12.6686H96.2225V28.6826ZM108.032 28.6826H104.874V27.1298H104.832C104.106 28.3411 103.032 28.9467 101.61 28.9467C100.56 28.9467 99.733 28.6509 99.1274 28.0594C98.5288 27.4608 98.2295 26.665 98.2295 25.6721C98.2295 23.5735 99.4725 22.3622 101.958 22.0383L104.895 21.6474C104.895 20.4643 104.254 19.8728 102.972 19.8728C101.684 19.8728 100.458 20.2566 99.2964 21.0242V18.5101C99.7612 18.2707 100.395 18.0594 101.198 17.8763C102.008 17.6932 102.744 17.6017 103.406 17.6017C106.49 17.6017 108.032 19.1404 108.032 22.2178V28.6826ZM104.895 24.2883V23.5594L102.93 23.8129C101.846 23.9538 101.303 24.4432 101.303 25.2812C101.303 25.6615 101.434 25.9749 101.694 26.2214C101.962 26.4608 102.321 26.5805 102.772 26.5805C103.399 26.5805 103.909 26.3657 104.303 25.9361C104.698 25.4995 104.895 24.9502 104.895 24.2883ZM121.12 28.6826H117.793V22.6721C117.793 20.996 117.194 20.158 115.997 20.158C115.42 20.158 114.944 20.3798 114.571 20.8235C114.198 21.2671 114.011 21.8305 114.011 22.5136V28.6826H110.673V17.8657H114.011V19.577H114.053C114.849 18.2601 116.008 17.6017 117.529 17.6017C119.923 17.6017 121.12 19.0876 121.12 22.0594V28.6826ZM131.969 28.2918C131.215 28.7284 130.127 28.9467 128.705 28.9467C127.043 28.9467 125.698 28.4432 124.67 27.4361C123.641 26.4291 123.127 25.1298 123.127 23.5383C123.127 21.7002 123.677 20.2531 124.775 19.1967C125.881 18.1333 127.356 17.6017 129.201 17.6017C130.476 17.6017 131.398 17.7707 131.969 18.1087V20.9397C131.272 20.4185 130.494 20.158 129.634 20.158C128.677 20.158 127.916 20.4397 127.353 21.0031C126.796 21.5594 126.518 22.3305 126.518 23.3164C126.518 24.2742 126.786 25.0277 127.321 25.577C127.856 26.1192 128.592 26.3904 129.529 26.3904C130.36 26.3904 131.173 26.1298 131.969 25.6087V28.2918ZM143.884 24.2249H136.828C136.941 25.7953 137.93 26.5805 139.796 26.5805C140.986 26.5805 142.032 26.2988 142.934 25.7354V28.1439C141.934 28.6791 140.634 28.9467 139.036 28.9467C137.289 28.9467 135.934 28.4643 134.969 27.4995C134.004 26.5277 133.522 25.1756 133.522 23.4432C133.522 21.6474 134.043 20.2249 135.085 19.1756C136.127 18.1263 137.409 17.6017 138.93 17.6017C140.508 17.6017 141.726 18.07 142.585 19.0066C143.451 19.9432 143.884 21.2143 143.884 22.82V24.2249ZM140.789 22.1756C140.789 20.6263 140.163 19.8516 138.909 19.8516C138.374 19.8516 137.909 20.0735 137.515 20.5171C137.127 20.9608 136.891 21.5136 136.807 22.1756H140.789ZM159.307 28.6826H155.884V22.5136H149.61V28.6826H146.198V13.5348H149.61V19.577H155.884V13.5348H159.307V28.6826ZM167.61 28.9467C165.807 28.9467 164.388 28.4432 163.353 27.4361C162.324 26.4221 161.81 25.0488 161.81 23.3164C161.81 21.5277 162.346 20.1298 163.416 19.1228C164.486 18.1087 165.934 17.6017 167.758 17.6017C169.553 17.6017 170.962 18.1087 171.983 19.1228C173.004 20.1298 173.515 21.4643 173.515 23.1263C173.515 24.9221 172.986 26.3411 171.93 27.3833C170.881 28.4256 169.441 28.9467 167.61 28.9467ZM167.694 20.158C166.905 20.158 166.293 20.4291 165.856 20.9714C165.42 21.5136 165.201 22.2812 165.201 23.2742C165.201 25.3516 166.039 26.3904 167.715 26.3904C169.314 26.3904 170.113 25.3235 170.113 23.1897C170.113 21.1685 169.307 20.158 167.694 20.158ZM185.958 28.6826H182.631V27.0347H182.578C181.754 28.3094 180.652 28.9467 179.272 28.9467C176.765 28.9467 175.511 27.4291 175.511 24.3939V17.8657H178.839V24.0981C178.839 25.6263 179.444 26.3904 180.655 26.3904C181.254 26.3904 181.733 26.1826 182.092 25.7671C182.451 25.3446 182.631 24.7742 182.631 24.0559V17.8657H185.958V28.6826ZM195.835 20.8763C195.434 20.658 194.965 20.5488 194.43 20.5488C193.705 20.5488 193.138 20.8164 192.729 21.3516C192.321 21.8798 192.117 22.6016 192.117 23.5171V28.6826H188.779V17.8657H192.117V19.8728H192.159C192.687 18.408 193.638 17.6756 195.011 17.6756C195.363 17.6756 195.638 17.7178 195.835 17.8024V20.8763ZM196.817 28.3974V25.6932C197.367 26.0242 197.912 26.2707 198.455 26.4326C199.004 26.5946 199.522 26.6756 200.007 26.6756C200.599 26.6756 201.064 26.5946 201.402 26.4326C201.747 26.2707 201.919 26.0242 201.919 25.6932C201.919 25.4819 201.842 25.3059 201.687 25.165C201.532 25.0242 201.331 24.9009 201.085 24.7953C200.846 24.6897 200.581 24.5946 200.293 24.5101C200.004 24.4256 199.726 24.3305 199.458 24.2249C199.029 24.0629 198.648 23.8904 198.317 23.7073C197.993 23.5171 197.719 23.2988 197.493 23.0523C197.275 22.8059 197.106 22.5207 196.986 22.1967C196.874 21.8728 196.817 21.489 196.817 21.0453C196.817 20.4397 196.948 19.9185 197.208 19.4819C197.476 19.0453 197.828 18.6897 198.265 18.415C198.708 18.1333 199.212 17.9291 199.775 17.8024C200.346 17.6686 200.937 17.6017 201.55 17.6017C202.029 17.6017 202.515 17.6404 203.007 17.7178C203.5 17.7883 203.986 17.8939 204.465 18.0348V20.6122C204.043 20.3657 203.588 20.1826 203.103 20.0629C202.624 19.9362 202.152 19.8728 201.687 19.8728C201.469 19.8728 201.261 19.8939 201.064 19.9362C200.874 19.9714 200.705 20.0277 200.557 20.1052C200.409 20.1756 200.293 20.2707 200.208 20.3904C200.124 20.5031 200.081 20.6333 200.081 20.7812C200.081 20.9784 200.145 21.1474 200.272 21.2883C200.398 21.4291 200.564 21.5523 200.768 21.658C200.972 21.7566 201.198 21.8481 201.444 21.9326C201.698 22.0101 201.948 22.0911 202.194 22.1756C202.638 22.3305 203.039 22.4995 203.398 22.6826C203.757 22.8657 204.064 23.0805 204.317 23.327C204.578 23.5735 204.775 23.8622 204.909 24.1932C205.05 24.5242 205.12 24.9185 205.12 25.3763C205.12 26.0171 204.979 26.5664 204.698 27.0242C204.423 27.4749 204.053 27.8446 203.588 28.1333C203.131 28.415 202.599 28.6192 201.993 28.746C201.395 28.8798 200.772 28.9467 200.124 28.9467C198.934 28.9467 197.831 28.7636 196.817 28.3974Z" fill="white"/>
</svg>
